<?xml version="1.0" standalone="no"?>
<!DOCTYPE svg PUBLIC "-//W3C//DTD SVG 20010904//EN"
 "http://www.w3.org/TR/2001/REC-SVG-20010904/DTD/svg10.dtd">
<svg version="1.0" xmlns="http://www.w3.org/2000/svg"
 width="225.000000pt" height="225.000000pt" viewBox="0 0 225.000000 225.000000"
 preserveAspectRatio="xMidYMid meet">
<metadata>
Created by potrace 1.14, written by Peter Selinger 2001-2017
</metadata>
<g transform="translate(0.000000,225.000000) scale(0.100000,-0.100000)"
fill="#000000" stroke="none">
<path d="M965 2184 c-59 -10 -191 -48 -255 -74 -250 -103 -471 -326 -571 -576
-63 -157 -73 -213 -73 -409 -1 -199 12 -267 79 -425 89 -209 261 -398 468
-514 77 -43 246 -101 337 -115 83 -14 266 -14 348 -1 357 58 668 304 812 642
62 145 74 215 75 413 0 196 -12 262 -76 418 -103 250 -327 470 -584 572 -137
55 -199 66 -370 70 -88 2 -173 1 -190 -1z m263 -848 c46 -24 99 -83 117 -131
39 -100 -5 -221 -99 -280 -43 -26 -59 -30 -120 -30 -102 1 -160 36 -207 125
-83 160 49 353 229 335 30 -3 66 -12 80 -19z"/>
</g>
</svg>
